<svg width="0" height="0" class="hidden">
  <symbol xmlns="http://www.w3.org/2000/svg" viewBox="0 0 41 41" id="logo">
    <circle cx="20.5" cy="20.5" r="20.5" fill="#1ABE84"></circle>
    <circle cx="20.5" cy="20.5" r="9" fill="#FB8F1D" stroke="#fff" stroke-width="3"></circle>
  </symbol>
  <symbol xmlns="http://www.w3.org/2000/svg" viewBox="0 0 29 20" id="youtube">
    <g clip-path="url(#clip0)">
      <path
        d="M27.986 7.65c0-.552-.048-1.271-.144-2.134a18.195 18.195 0 00-.336-2.303 3.658 3.658 0 00-1.08-1.918c-.55-.528-1.198-.815-1.942-.911C22.182.12 18.681 0 14.004 0 9.33 0 5.828.12 3.526.384c-.743.096-1.39.383-1.942.911a3.658 3.658 0 00-1.08 1.918c-.167.672-.263 1.44-.36 2.303A60.367 60.367 0 000 7.65V10c0 1.007 0 1.775.024 2.35 0 .552.048 1.271.144 2.134.048.864.168 1.631.312 2.303a3.65 3.65 0 001.079 1.918c.551.528 1.199.815 1.942.911 2.302.264 5.804.384 10.48.384s8.177-.12 10.48-.384c.743-.072 1.39-.383 1.942-.911a3.658 3.658 0 001.079-1.918c.168-.672.264-1.44.36-2.303.072-.863.12-1.582.144-2.134 0-.551.024-1.343.024-2.35 0-1.007 0-1.775-.024-2.35zm-8.442 3.19l-8.01 5.011a.922.922 0 01-.527.168 1.18 1.18 0 01-.48-.12c-.335-.192-.527-.48-.527-.887v-10c0-.408.168-.695.528-.887.36-.192.695-.168 1.007.024l4.005 2.506 4.004 2.506c.312.168.48.455.48.839-.024.384-.168.671-.48.84z">
      </path>
    </g>
    <defs>
      <clipPath id="clip0">
        <path d="M0 0h28.01v20H0z"></path>
      </clipPath>
    </defs>
  </symbol>
  <symbol xmlns="http://www.w3.org/2000/svg" viewBox="0 0 23 22" id="linkedin">
    <path
      d="M5.216 7.15H.276V22h4.94V7.15zm16.222 1.356c-1.034-1.127-2.413-1.702-4.113-1.702-.62 0-1.195.07-1.724.23-.505.161-.942.368-1.31.644-.344.276-.643.529-.85.782a5.35 5.35 0 00-.574.781V7.126H7.95l.023.713c0 .483.023 1.954.023 4.437 0 2.482 0 5.7-.023 9.7h4.917v-8.275c0-.506.046-.92.16-1.218a3.31 3.31 0 01.943-1.288c.414-.345.942-.505 1.585-.505.85 0 1.494.298 1.884.896.414.598.598 1.425.598 2.46v7.93h4.917v-8.505c.023-2.184-.483-3.839-1.54-4.965zM2.78 0C1.953 0 1.287.253.781.736.253 1.218 0 1.816 0 2.552c0 .735.253 1.333.758 1.839.506.483 1.15.735 1.976.735h.023c.85 0 1.517-.252 2.022-.735.506-.483.758-1.104.758-1.84 0-.735-.275-1.356-.758-1.838C4.274.253 3.607 0 2.78 0z">
    </path>
  </symbol>
  <symbol xmlns="http://www.w3.org/2000/svg" viewBox="0 0 22 22" id="instagram">
    <path
      d="M15.93 0H6.07A6.07 6.07 0 000 6.07v9.86A6.07 6.07 0 006.07 22h9.86A6.07 6.07 0 0022 15.93V6.07A6.07 6.07 0 0015.93 0zm4.117 15.93a4.122 4.122 0 01-4.117 4.117H6.07a4.122 4.122 0 01-4.117-4.117V6.07A4.132 4.132 0 016.07 1.953h9.86a4.122 4.122 0 014.117 4.117v9.86z">
    </path>
    <path
      d="M11 5.337c-3.124 0-5.679 2.539-5.679 5.663A5.684 5.684 0 0011 16.679a5.684 5.684 0 005.679-5.68c0-3.123-2.555-5.662-5.679-5.662zm0 9.39c-2.05 0-3.726-1.66-3.726-3.71C7.29 8.95 8.95 7.29 11 7.29s3.726 1.66 3.726 3.71A3.736 3.736 0 0111 14.726zm5.907-11.05a1.39 1.39 0 00-1.01.424c-.26.26-.422.634-.422 1.008 0 .375.146.749.423 1.01.26.26.634.422 1.009.422a1.39 1.39 0 001.009-.423c.26-.26.423-.634.423-1.009a1.39 1.39 0 00-.423-1.008 1.363 1.363 0 00-1.01-.424z">
    </path>
  </symbol>
  <symbol xmlns="http://www.w3.org/2000/svg" viewBox="0 0 10 22" id="facebook">
    <path
      d="M6.647 7.21V5.305c0-.286.02-.512.04-.655a.975.975 0 01.18-.45.787.787 0 01.438-.308c.2-.061.48-.082.819-.082H9.98V0H7.006C5.289 0 4.072.41 3.333 1.25c-.738.84-1.117 2.048-1.117 3.687V7.21H0V11h2.216v11h4.43V11h2.955L10 7.21H6.647z">
    </path>
  </symbol>
  <symbol xmlns="http://www.w3.org/2000/svg" viewBox="0 0 25 20" id="twitter">
    <path
      d="M24.999 2.374c-.974.408-1.972.672-2.945.791 1.12-.647 1.85-1.582 2.263-2.781a10.676 10.676 0 01-3.262 1.199C20.034.528 18.792 0 17.307 0c-1.412 0-2.63.504-3.627 1.487-.998.983-1.51 2.182-1.51 3.573 0 .384.05.767.122 1.151a14.232 14.232 0 01-5.89-1.559A14.961 14.961 0 011.726.935a4.946 4.946 0 00-.706 2.542c0 .864.195 1.679.609 2.398a5.155 5.155 0 001.655 1.799 4.854 4.854 0 01-2.312-.648v.072c0 1.223.39 2.279 1.168 3.214.78.911 1.753 1.51 2.946 1.75-.439.12-.901.168-1.34.168-.291 0-.608-.024-.973-.072.317 1.008.925 1.847 1.801 2.494.877.648 1.875.984 2.995 1.008-1.85 1.438-3.993 2.158-6.354 2.158a9.6 9.6 0 01-1.241-.072C2.36 19.256 4.989 20 7.837 20c1.826 0 3.53-.288 5.137-.84 1.606-.575 2.97-1.318 4.09-2.277a15.72 15.72 0 002.92-3.286 14.12 14.12 0 001.826-3.885c.39-1.343.609-2.71.609-4.053 0-.287 0-.503-.025-.647A10.384 10.384 0 0025 2.374z">
    </path>
  </symbol>
</svg>